<svg width="357" height="357" viewBox="0 0 357 357" fill="none" xmlns="http://www.w3.org/2000/svg">
<path d="M300.475 44.6246V56.525H312.375V123.835H232.05V133.875H267.75V142.8H232.05V169.575H258.825V196.35H246.925V184.45H232.05V229.075H220.15V249.9H205.275V264.775H193.375V318.325H205.275V330.225H181.475L178.5 288.575H169.575V276.675H154.7V288.575H139.825V303.45H124.95V318.325H139.825V330.225H113.05V276.675H98.1752V264.775H86.2748V249.9H71.3998V235.025H59.5004V220.15H47.6V145.775H59.5004V169.575H71.3998V184.45H86.2748V196.35H113.05V184.45H127.925V169.575H145.775V157.675H166.6V142.8H179.616L181.475 56.525H193.375V41.65L300.475 44.6246ZM205.276 68.4254V98.1754H235.026V68.4254H205.276ZM229.076 74.3746V92.2252H211.225V74.3746H229.076Z" fill="#535353"/>
</svg>
