<svg width="2200" height="110" viewBox="0 0 2200 110" fill="none" xmlns="http://www.w3.org/2000/svg">
<g clip-path="url(#clip0_92_308)">
<rect width="2200" height="110" fill="white"/>
<path d="M0 14.6667L196.167 14.6667L198 3.66669L220 3.66669L225.5 14.6667L955.167 14.6667L966.167 22L980.833 16.5L991.833 14.6667L1002.83 27.5L1013.83 27.5L1017.5 14.6667L2200 14.6667" stroke="#535353" stroke-width="3.66667"/>
<line y1="62.3333" x2="58.6667" y2="62.3333" stroke="#535353" stroke-width="3.66667"/>
<line x1="58.6667" y1="82.5" x2="77" y2="82.5" stroke="#535353" stroke-width="3.66667"/>
<line x1="80.6667" y1="49.5" x2="99" y2="49.5" stroke="#535353" stroke-width="3.66667"/>
<line x1="132" y1="71.5" x2="150.333" y2="71.5" stroke="#535353" stroke-width="3.66667"/>
<line x1="366.667" y1="62.3333" x2="425.333" y2="62.3333" stroke="#535353" stroke-width="3.66667"/>
<line x1="425.333" y1="82.5" x2="443.667" y2="82.5" stroke="#535353" stroke-width="3.66667"/>
<line x1="447.333" y1="49.5" x2="465.667" y2="49.5" stroke="#535353" stroke-width="3.66667"/>
<line x1="498.667" y1="71.5" x2="517" y2="71.5" stroke="#535353" stroke-width="3.66667"/>
<line x1="949.667" y1="62.3333" x2="1008.33" y2="62.3333" stroke="#535353" stroke-width="3.66667"/>
<line x1="997.333" y1="49.5" x2="1015.67" y2="49.5" stroke="#535353" stroke-width="3.66667"/>
<line x1="1048.67" y1="71.5" x2="1067" y2="71.5" stroke="#535353" stroke-width="3.66667"/>
<line x1="869" y1="82.5" x2="887.333" y2="82.5" stroke="#535353" stroke-width="3.66667"/>
<line x1="1415.33" y1="62.3333" x2="1474" y2="62.3333" stroke="#535353" stroke-width="3.66667"/>
<line x1="1474" y1="82.5" x2="1492.33" y2="82.5" stroke="#535353" stroke-width="3.66667"/>
<line x1="1496" y1="49.5" x2="1514.33" y2="49.5" stroke="#535353" stroke-width="3.66667"/>
<line x1="1547.33" y1="71.5" x2="1565.67" y2="71.5" stroke="#535353" stroke-width="3.66667"/>
<line x1="1833.33" y1="64.1667" x2="1851.67" y2="64.1667" stroke="#535353" stroke-width="3.66667"/>
<line x1="2049.67" y1="62.3333" x2="2108.33" y2="62.3333" stroke="#535353" stroke-width="3.66667"/>
<line x1="2108.33" y1="82.5" x2="2126.67" y2="82.5" stroke="#535353" stroke-width="3.66667"/>
<line x1="2130.33" y1="49.5" x2="2148.67" y2="49.5" stroke="#535353" stroke-width="3.66667"/>
<line x1="2181.67" y1="71.5" x2="2200" y2="71.5" stroke="#535353" stroke-width="3.66667"/>
</g>
<defs>
<clipPath id="clip0_92_308">
<rect width="2200" height="110" fill="white"/>
</clipPath>
</defs>
</svg>
